<svg class="svg-canvas" viewBox="137.33064529107207 204.6371061512092 190.7257944773031 190.7257944773031" width="1200" height="1200" preserveAspectRatio="none" version="1.1" xmlns="http://www.w3.org/2000/svg" xmlns:xlink="http://www.w3.org/1999/xlink" style="background:#e8f3fe"><g id="shape_lVFSbT8DuY" ref="shape_lVFSbT8DuY" key="shape_lVFSbT8DuY" mask="">
                <g transform="translate(159.99999999999997,234.61372711933774) rotate(0,72.69353631214834,65.38627288066228) scale(1,1)" style="opacity: 1;mix-blend-mode: undefined;" filter="">
                  <!--普通元素-->
                  <svg version="1.1" id="图层_1" xmlns="http://www.w3.org/2000/svg" xmlns:xlink="http://www.w3.org/1999/xlink" x="0px" y="0px" width="145.38707262429668" height="130.77254576132455" viewBox="3.1000003814697266 3.7404799461364746 133.79998779296875 120.35021209716797" style="enable-background:new 0 0 139 128;" xml:space="preserve" class="style-removed" preserveAspectRatio="none" data-parent="shape_lVFSbT8DuY">

<g>
	<path d="M33.4,20.8c-3.6-4.5-2.9-11.1,1.7-14.7c4.5-3.6,11.1-2.9,14.7,1.7L66,28.2c2,2.7,5.4,3,8.1-0.1L90.3,7.7
		c3.6-4.5,10.2-5.3,14.7-1.7c4.5,3.6,5.3,10.2,1.7,14.7L78.4,56.5c-0.5,0.7-1.1,1.3-1.8,1.9c-4.5,3.6-11.1,2.9-14.7-1.7L33.4,20.8z" fill-rule="evenodd" clip-rule="evenodd" fill="#1a89f8" stroke-width="0"></path>
	<path d="M13.6,74.4c-5.8,0-10.5-4.7-10.5-10.5c0-5.8,4.7-10.5,10.5-10.5h29.7c5.8,0,10.5,4.7,10.5,10.5
		c0,5.8-4.7,10.5-10.5,10.5H13.6z" fill-rule="evenodd" clip-rule="evenodd" fill="#1a89f8" stroke-width="0"></path>
	<path d="M96.7,74.4c-5.8,0-10.5-4.7-10.5-10.5c0-5.8,4.7-10.5,10.5-10.5h29.7c5.8,0,10.5,4.7,10.5,10.5
		c0,5.8-4.7,10.5-10.5,10.5H96.7z" fill-rule="evenodd" clip-rule="evenodd" fill="#1a89f8" stroke-width="0"></path>
	<path d="M33.4,107.1c-3.6,4.5-2.9,11.1,1.7,14.7c4.5,3.6,11.1,2.9,14.7-1.7L66,99.7c2-2.7,5.4-3,8.1,0.1l16.1,20.3
		c3.6,4.5,10.2,5.3,14.7,1.7c4.5-3.6,5.3-10.2,1.7-14.7L78.4,71.4c-0.5-0.7-1.1-1.3-1.8-1.9c-4.5-3.6-11.1-2.9-14.7,1.7L33.4,107.1z
		" fill-rule="evenodd" clip-rule="evenodd" fill="#1a89f8" stroke-width="0"></path>
</g>
</svg>
                </g>
              </g></svg>